<svg id="Layer_1" data-name="Layer 1" xmlns="http://www.w3.org/2000/svg" viewBox="0 0 355.31 46.78"><path d="M38.31,210.93H60v8.83H28.18V173H59.59v8.83H38.31v9.95H57.76v8.69H38.31Z" transform="translate(-28.18 -172.97)"/><path d="M77.21,210.93H96.8v8.83H67.08V173H77.21Z" transform="translate(-28.18 -172.97)"/><path d="M122.93,173a24.57,24.57,0,0,1,17.65,6.75,23.08,23.08,0,0,1,0,33.29,24.57,24.57,0,0,1-17.65,6.75h-20.4V173Zm0,38a14.94,14.94,0,0,0,10.86-4,15.31,15.31,0,0,0,0-21,14.94,14.94,0,0,0-10.86-4H112.66v29.13Z" transform="translate(-28.18 -172.97)"/><path d="M165,210.93h21.65v8.83H154.86V173h31.41v8.83H165v9.95h19.45v8.69H165Z" transform="translate(-28.18 -172.97)"/><path d="M221.94,219.76l-10.38-16.24h-7.67v16.24H193.76V173h20.55a17.34,17.34,0,0,1,12.11,4.55,14.28,14.28,0,0,1,5,11,13.39,13.39,0,0,1-2.71,8.05,16.63,16.63,0,0,1-7.2,5.58l11.38,17.65Zm-18.05-38.17v13.84h10.42a6.74,6.74,0,0,0,4.92-2,6.65,6.65,0,0,0,2.05-4.91,6.56,6.56,0,0,0-2.05-4.88,6.79,6.79,0,0,0-4.92-2Z" transform="translate(-28.18 -172.97)"/><path d="M249,210.93h19.6v8.83H238.82V173H249Z" transform="translate(-28.18 -172.97)"/><path d="M383.48,219.76H371.81l-18.34-21.92v21.92H343.34V173h10.13v20.62L371.08,173h11.67l-19,22.73Z" transform="translate(-28.18 -172.97)"/><path d="M278.53,215.37a14.45,14.45,0,0,1-5.07-11.59V186.59h0a6.85,6.85,0,0,0,9.32-.07h0l0,16.55a7.67,7.67,0,0,0,2.12,5.7q2.13,2.09,6.65,2.09c3,0,5.23-.7,6.65-2.09a7.64,7.64,0,0,0,2.13-5.7v-7.63h9.24v8.35a14.44,14.44,0,0,1-5.06,11.59q-5.06,4.32-13,4.32T278.53,215.37Z" transform="translate(-28.18 -172.97)"/><path d="M331.38,177.13a13.7,13.7,0,0,1,5.06,11.16v31.4h-9.38l.07-30.7A7.2,7.2,0,0,0,325,183.5c-1.41-1.34-3.63-2-6.65-2s-5.23.68-6.64,2a7.2,7.2,0,0,0-2.13,5.49v7.34h-9.25v-8a13.71,13.71,0,0,1,5.07-11.16q5.06-4.15,13-4.16T331.38,177.13Z" transform="translate(-28.18 -172.97)"/><circle cx="250.03" cy="4.73" r="4.71"/></svg>